<?xml version="1.0" standalone="no"?>
<!DOCTYPE svg PUBLIC "-//W3C//DTD SVG 20010904//EN"
 "http://www.w3.org/TR/2001/REC-SVG-20010904/DTD/svg10.dtd">
<svg version="1.0" xmlns="http://www.w3.org/2000/svg"
 width="970.000000pt" height="546.000000pt" viewBox="0 0 970.000000 546.000000"
 preserveAspectRatio="xMidYMid meet">

<g transform="translate(0.000000,546.000000) scale(0.100000,-0.100000)"
fill="#000000" stroke="none">
<path d="M0 5429 c0 -26 3 -29 14 -20 7 6 38 20 67 30 l54 20 -67 0 -68 1 0
-31z"/>
<path d="M695 5439 c33 -11 81 -20 108 -20 26 -1 50 -5 53 -10 3 -5 33 -9 67
-9 35 0 89 -9 122 -20 79 -27 168 -62 179 -72 6 -4 23 -8 38 -8 15 0 28 -3 28
-8 0 -11 57 -34 77 -30 38 7 22 28 -34 44 -32 9 -62 19 -68 22 -5 4 -14 7 -20
7 -5 1 -17 4 -25 7 -47 19 -140 48 -170 54 -19 3 -39 10 -45 14 -5 4 -28 10
-50 12 -22 1 -43 7 -46 12 -8 10 -65 17 -184 21 l-90 4 60 -20z"/>
<path d="M3084 5438 c23 -32 20 -62 -14 -158 -16 -47 -30 -101 -30 -121 0 -63
24 -79 430 -286 129 -66 253 -136 275 -155 181 -159 196 -170 340 -249 28 -15
91 -49 140 -76 50 -27 155 -84 235 -125 80 -42 181 -97 225 -121 185 -104 237
-126 294 -125 40 1 57 -3 66 -15 28 -39 135 -63 135 -30 0 16 1 16 16 1 9 -9
17 -27 18 -40 1 -18 8 -24 31 -26 16 -2 38 -10 49 -18 11 -8 37 -14 58 -14 20
0 40 -5 43 -11 4 -6 22 -8 45 -4 52 9 117 -11 153 -46 16 -17 42 -35 58 -42
16 -7 210 -192 431 -412 222 -220 433 -425 468 -457 153 -133 593 -590 695
-721 64 -83 116 -154 141 -197 15 -25 30 -47 34 -50 19 -13 50 -78 50 -106 0
-34 -29 -74 -53 -74 -8 0 -18 -6 -20 -12 -4 -10 -6 -10 -6 -1 -1 7 -8 10 -17
6 -13 -5 -13 -7 -2 -14 8 -6 0 -6 -19 -3 -33 6 -33 6 -33 -35 0 -34 -3 -41
-20 -41 -16 0 -20 -7 -20 -30 0 -28 -2 -30 -42 -31 -37 -1 -39 -2 -18 -9 24
-8 24 -8 3 -9 -13 -1 -23 -7 -23 -16 0 -8 -9 -15 -20 -15 -11 0 -20 -4 -20
-10 0 -5 -7 -10 -15 -10 -8 0 -15 -7 -15 -15 0 -8 -7 -15 -15 -15 -8 0 -15 -9
-15 -20 0 -11 -4 -20 -10 -20 -5 0 -10 -9 -10 -20 0 -11 -4 -20 -10 -20 -5 0
-10 -7 -10 -15 0 -9 -12 -18 -30 -21 -21 -5 -30 -12 -30 -25 0 -15 -8 -19 -40
-19 -33 0 -40 -3 -40 -20 0 -13 -7 -20 -20 -20 -13 0 -20 -7 -20 -20 0 -11 -4
-20 -10 -20 -5 0 -10 -9 -10 -20 0 -11 -4 -20 -10 -20 -5 0 -10 -9 -10 -20 0
-13 -7 -20 -20 -20 -13 0 -20 -7 -20 -20 0 -13 -7 -20 -19 -20 -10 0 -21 -9
-24 -20 -3 -11 -12 -20 -20 -20 -8 0 -17 -9 -20 -20 -3 -11 -12 -20 -21 -20
-12 0 -16 -10 -16 -40 0 -29 -4 -40 -15 -40 -8 0 -15 -7 -15 -16 0 -18 -23
-44 -39 -44 -10 0 -16 -22 -12 -44 2 -11 -39 -46 -55 -46 -8 0 -16 -11 -20
-25 -4 -16 -13 -25 -25 -25 -10 0 -19 -7 -19 -15 0 -8 -7 -15 -16 -15 -18 0
-44 -23 -44 -39 0 -6 -13 -11 -30 -11 -26 0 -30 -3 -30 -29 0 -26 -4 -30 -40
-36 -22 -4 -40 -11 -40 -16 0 -5 -9 -9 -20 -9 -11 0 -20 -7 -20 -15 0 -8 -9
-15 -20 -15 -13 0 -20 -7 -20 -20 0 -17 -7 -20 -40 -20 -38 0 -40 -2 -40 -29
0 -26 -4 -30 -40 -36 -22 -4 -40 -11 -40 -16 0 -5 -16 -9 -35 -9 -24 0 -35 -5
-35 -15 0 -8 -4 -15 -9 -15 -5 0 -11 -9 -14 -20 -3 -11 -13 -20 -22 -20 -21 0
-45 -24 -45 -44 0 -9 -8 -16 -20 -16 -11 0 -20 -4 -20 -10 0 -5 -9 -10 -20
-10 -11 0 -20 -6 -20 -14 0 -8 -9 -18 -20 -21 -11 -3 -20 -15 -20 -26 0 -12
-7 -19 -20 -19 -13 0 -20 -7 -20 -20 0 -11 -6 -20 -13 -20 -7 0 -19 -9 -27
-20 -9 -13 -26 -20 -47 -20 -18 0 -33 -5 -33 -11 0 -6 9 -9 20 -6 11 3 20 1
20 -4 0 -9 -26 -13 -65 -10 -17 2 -17 0 -5 -8 12 -8 8 -11 -17 -11 -37 0 -45
-17 -10 -22 40 -6 -244 -16 -383 -14 -74 2 -182 8 -240 15 -58 6 -199 20 -315
31 -196 19 -261 26 -425 50 -36 5 -128 19 -205 30 -225 33 -279 43 -289 51 -5
5 -9 26 -8 48 2 38 1 40 -46 56 -26 9 -65 23 -86 31 -50 17 -60 9 -81 -63 -18
-62 -16 -99 4 -95 31 7 72 -11 85 -36 17 -33 10 -116 -12 -149 l-14 -23 1278
0 c830 0 1274 4 1264 10 -13 8 -12 10 3 10 9 0 17 -4 17 -10 0 -7 608 -10
1805 -10 l1805 0 0 2730 0 2730 -1680 0 -1680 0 0 -24 c0 -25 22 -51 33 -39 4
3 10 -8 13 -26 5 -23 9 -29 15 -19 6 9 9 2 9 -19 0 -46 -15 -41 -27 10 l-11
42 -1 -35 c-1 -45 9 -81 20 -74 11 7 11 4 -2 -35 -11 -30 -29 -43 -29 -20 0 8
-5 8 -15 -1 -8 -7 -15 -18 -15 -24 0 -21 -43 -54 -89 -71 -39 -14 -47 -14 -67
0 -13 8 -39 15 -58 15 -24 0 -38 6 -45 19 -12 21 -75 61 -97 61 -8 0 -14 3
-14 8 0 15 -90 63 -120 64 -20 1 -43 13 -67 35 -37 33 -66 42 -78 23 -12 -20
-63 -11 -84 16 -16 21 -27 25 -60 23 -44 -3 -68 12 -73 44 l-3 22 -1203 3
-1203 2 15 -22z m3333 -364 c28 -29 30 -54 3 -54 -13 0 -20 -7 -20 -20 0 -11
-5 -20 -11 -20 -7 0 -20 -10 -30 -22 l-19 -21 0 21 c0 18 -6 22 -34 22 -48 0
-53 29 -14 77 45 58 80 62 125 17z m2042 -2969 c34 -124 50 -241 47 -350 -2
-55 1 -108 6 -117 5 -12 5 -18 -2 -18 -5 0 -10 -11 -10 -23 0 -45 -39 -177
-75 -250 -19 -41 -35 -77 -35 -82 0 -4 -13 -24 -30 -45 -16 -21 -30 -42 -30
-47 0 -14 -83 -100 -115 -119 l-30 -18 20 24 c11 13 30 36 43 50 80 89 168
263 191 375 7 33 16 74 20 90 4 17 7 107 6 200 -1 139 -6 194 -28 304 -31 156
-31 151 -14 126 8 -11 24 -56 36 -100z m-37 -149 c10 -39 10 -50 1 -53 -7 -3
-13 -9 -13 -14 0 -6 5 -7 11 -3 8 5 10 0 6 -17 -3 -13 -11 -46 -17 -74 -11
-45 -39 -85 -61 -85 -16 0 -32 85 -30 159 1 72 11 96 56 148 15 18 32 -4 47
-61z m-1065 -252 c-3 -3 -12 -4 -19 -1 -8 3 -5 6 6 6 11 1 17 -2 13 -5z m1633
-254 c0 -5 -7 -10 -16 -10 -8 0 -12 5 -9 10 3 6 10 10 16 10 5 0 9 -4 9 -10z
m-80 -28 c0 -13 -12 -22 -22 -16 -10 6 -1 24 13 24 5 0 9 -4 9 -8z m-890 -180
c0 -78 -15 -160 -48 -257 l-26 -80 -8 45 c-21 137 -21 138 2 194 12 30 19 59
16 65 -4 5 -1 13 5 17 6 3 17 22 25 40 21 50 34 41 34 -24z m1450 -137 c0 -2
-7 -11 -16 -19 -20 -20 -45 -21 -39 -1 3 8 7 22 10 30 4 13 9 14 25 5 11 -6
20 -12 20 -15z m-262 -2 c-10 -2 -26 -2 -35 0 -10 3 -2 5 17 5 19 0 27 -2 18
-5z m422 -108 c0 -26 -21 -42 -40 -30 -6 4 -4 15 7 30 23 31 33 31 33 0z m9
-134 c-3 -6 -10 -7 -18 -2 -7 5 -10 14 -6 21 9 14 29 -2 24 -19z m-1949 -325
c0 -2 -12 -12 -27 -21 l-28 -18 19 21 c17 20 36 29 36 18z"/>
<path d="M99 5372 c-31 -28 -31 -28 -15 -60 31 -60 191 -159 316 -196 73 -22
179 -30 211 -18 19 8 28 20 32 44 4 29 -1 38 -47 83 -92 91 -289 175 -407 175
-50 0 -63 -4 -90 -28z m68 12 c-3 -3 -12 -4 -19 -1 -8 3 -5 6 6 6 11 1 17 -2
13 -5z"/>
<path d="M698 5359 c-46 -27 0 -92 101 -144 118 -59 271 -79 271 -34 0 10 5
21 11 25 20 12 -45 66 -126 104 -113 53 -217 73 -257 49z"/>
<path d="M1439 5268 c-8 -28 -5 -45 7 -54 10 -8 13 -20 8 -39 -8 -31 -28 -42
-49 -25 -14 12 -35 6 -35 -9 0 -4 37 -18 83 -30 111 -31 253 -84 365 -138 51
-25 95 -43 98 -40 3 3 -10 22 -28 42 -31 36 -32 37 -8 30 70 -20 509 -259 498
-271 -2 -2 -33 5 -69 16 -67 21 -133 26 -127 11 2 -5 39 -46 82 -91 81 -85
126 -110 196 -110 35 0 61 51 42 81 -14 22 -9 24 21 8 72 -38 397 -291 397
-309 0 -6 -24 0 -52 12 -110 45 -219 78 -276 84 -59 7 -61 6 -96 -30 -30 -29
-35 -39 -27 -55 18 -32 111 -110 175 -146 120 -67 320 -119 390 -101 20 5 26
13 26 35 0 15 9 36 19 45 26 23 13 51 -41 91 -22 17 -57 47 -77 67 -320 326
-334 337 -631 523 -80 50 -160 95 -235 133 -84 43 -410 192 -420 192 -3 0 -44
15 -93 34 -81 32 -141 50 -143 44z m1136 -848 c3 -5 -3 -10 -14 -10 -12 0 -21
5 -21 10 0 6 6 10 14 10 8 0 18 -4 21 -10z m274 -125 c-20 -33 -39 -53 -39
-40 0 21 32 75 44 75 13 0 12 -6 -5 -35z"/>
<path d="M0 5080 l0 -89 52 -16 c28 -8 74 -15 102 -15 47 0 52 2 65 31 13 29
12 32 -20 65 -19 20 -63 49 -99 65 -36 17 -73 34 -82 40 -17 8 -18 2 -18 -81z"/>
<path d="M765 5073 c-22 -1 -63 -8 -91 -13 -46 -10 -52 -14 -56 -40 -3 -18 1
-31 9 -34 26 -10 14 -29 -16 -23 -29 6 -60 -15 -59 -38 0 -5 -10 -15 -24 -22
-41 -21 -60 -48 -56 -85 l3 -33 28 43 c25 39 124 111 290 211 36 22 49 43 25
39 -7 -1 -31 -3 -53 -5z"/>
<path d="M851 4964 c-1 -6 -7 -11 -14 -11 -17 0 -67 -33 -67 -44 0 -5 -7 -9
-15 -9 -9 0 -30 -15 -48 -32 -32 -33 -58 -52 -87 -65 -8 -4 -20 -12 -26 -17
-6 -6 -23 -21 -38 -33 -49 -43 -33 -99 56 -198 25 -27 46 -52 46 -55 2 -22 15
-68 23 -83 6 -11 8 -21 5 -24 -3 -4 2 -12 12 -20 19 -16 17 -16 -88 12 -101
28 -180 16 -180 -27 0 -22 74 -110 84 -100 3 3 6 -2 6 -10 0 -16 227 -154 237
-145 2 3 -31 24 -74 47 -130 69 -142 84 -40 49 107 -37 184 -38 179 -3 -2 12
4 24 12 27 19 8 29 -7 22 -31 -4 -13 10 -32 52 -68 31 -28 68 -56 82 -64 22
-11 122 -112 116 -117 -3 -4 -69 26 -196 89 -63 31 -116 55 -118 53 -13 -13
341 -182 544 -260 148 -57 434 -149 441 -141 2 2 -34 15 -79 30 -103 32 -126
46 -79 46 41 0 111 20 111 32 0 11 37 10 61 -2 10 -6 44 -11 75 -12 43 -1 58
2 66 15 9 16 48 24 48 10 0 -4 -9 -16 -20 -28 -20 -21 -20 -22 -1 -46 10 -13
49 -42 85 -63 36 -21 66 -43 66 -48 0 -5 4 -6 10 -3 5 3 36 -1 69 -10 72 -18
131 -19 155 -2 16 12 17 16 3 48 -17 42 -92 95 -190 135 -37 15 -67 30 -67 34
0 3 15 14 33 25 17 10 37 26 44 35 8 12 34 19 76 24 36 3 79 13 96 22 27 13
30 19 24 42 -3 15 -10 30 -15 33 -8 5 -13 34 -24 133 -2 22 -9 57 -15 79 -6
22 -9 56 -8 76 2 20 0 41 -4 47 -4 7 -50 9 -134 6 -156 -5 -278 16 -483 84
-330 110 -600 280 -782 494 -26 30 -47 50 -47 44z m464 -502 c-23 -42 -62
-110 -86 -150 -24 -40 -50 -84 -57 -98 -11 -20 -16 -22 -33 -13 -19 10 -19 12
-5 32 9 12 28 42 42 67 58 97 99 160 107 160 4 0 7 8 7 19 0 26 38 71 54 65
10 -4 3 -25 -29 -82z m865 -147 c8 -9 14 -76 17 -199 5 -183 5 -184 -17 -191
-12 -4 -26 -3 -30 2 -17 18 -33 343 -19 381 10 25 31 29 49 7z m-1013 -221
c-3 -3 -12 -4 -19 -1 -8 3 -5 6 6 6 11 1 17 -2 13 -5z"/>
<path d="M1368 4923 c-9 -3 -16 -13 -15 -24 1 -13 6 -18 16 -14 70 27 203 1
337 -65 84 -41 178 -116 189 -150 8 -24 23 -26 32 -4 8 22 -68 97 -148 145
-116 69 -333 135 -364 109 -6 -5 -16 -6 -21 -1 -5 4 -17 6 -26 4z"/>
<path d="M460 4890 c0 -5 5 -10 10 -10 6 0 10 5 10 10 0 6 -4 10 -10 10 -5 0
-10 -4 -10 -10z"/>
<path d="M0 4766 l0 -111 78 -37 c110 -53 204 -79 302 -85 98 -6 123 6 135 66
7 31 3 37 -52 90 -91 86 -255 160 -400 179 l-63 9 0 -111z"/>
<path d="M1327 4820 c12 -45 196 -171 283 -194 14 -4 -11 11 -55 32 -92 45
-178 109 -197 148 -16 34 -39 44 -31 14z"/>
<path d="M1517 4784 c3 -22 8 -42 12 -45 16 -17 153 -69 182 -69 18 0 29 3 26
7 -4 3 1 11 10 18 15 11 14 15 -10 39 -35 35 -128 77 -183 84 l-43 5 6 -39z"/>
<path d="M1675 4604 c63 -23 175 -38 188 -25 8 8 -4 11 -44 11 -30 0 -81 7
-112 15 -72 19 -85 18 -32 -1z"/>
<path d="M1890 4595 c-7 -9 -8 -15 -2 -15 5 0 12 7 16 15 3 8 4 15 2 15 -2 0
-9 -7 -16 -15z"/>
<path d="M2 3829 c-2 -519 1 -656 11 -656 6 0 35 -14 64 -31 28 -17 105 -59
170 -93 65 -34 123 -65 128 -69 19 -15 332 -153 490 -218 705 -286 1467 -445
1948 -404 221 19 375 58 482 123 40 24 55 39 59 63 4 16 16 40 27 53 12 12 22
30 23 40 2 24 37 135 47 148 4 6 13 23 18 38 10 25 9 27 -8 17 -34 -18 -47
-11 -17 9 25 16 86 99 86 116 0 3 14 36 31 73 39 83 60 142 51 142 -4 0 -2 4
4 8 16 10 28 52 15 52 -5 0 -21 -4 -35 -10 -15 -5 -26 -6 -26 -1 0 5 5 11 11
13 14 5 19 40 7 54 -5 8 -3 14 8 18 10 4 14 12 10 22 -6 15 -4 15 10 3 16 -13
16 -12 4 11 -7 14 -11 27 -9 29 2 2 -4 5 -13 7 -10 1 -18 -1 -18 -6 0 -4 -11
-10 -24 -12 -19 -4 -22 -1 -18 14 2 10 7 18 11 18 3 0 12 14 19 30 8 17 17 28
22 25 4 -3 10 4 13 15 7 26 -3 25 -44 -3 -38 -26 -70 -41 -81 -39 -5 1 -8 -2
-8 -7 0 -5 -13 -12 -30 -16 -16 -4 -30 -10 -30 -15 0 -4 -8 -7 -17 -5 -10 1
-22 0 -28 -3 -5 -3 -16 -7 -25 -8 -8 -1 -31 -5 -50 -9 -125 -24 -184 -29 -340
-28 -96 0 -215 5 -265 12 -163 20 -289 39 -330 50 -44 11 -177 41 -293 65 -73
16 -165 40 -212 56 -14 5 -65 20 -115 35 -128 38 -277 91 -329 118 -45 23 -56
27 -66 27 -6 0 -29 8 -53 19 -23 10 -80 33 -127 50 -170 64 -219 86 -450 201
-206 103 -374 195 -490 269 -19 12 -73 47 -120 76 l-85 54 -6 58 c-3 32 -6
-237 -7 -598z m648 -79 c0 -3 -9 -20 -20 -38 -18 -29 -22 -31 -43 -21 -12 6
-24 13 -26 15 -2 2 13 19 35 38 35 30 53 32 54 6z m-50 -100 c0 -18 -41 -134
-52 -147 -17 -22 -36 -15 -47 17 -11 32 5 83 38 123 15 18 61 24 61 7z m2636
-525 c-11 -8 -30 -15 -43 -15 -13 0 -23 -4 -23 -10 0 -5 -6 -10 -14 -10 -7 0
-19 -7 -26 -15 -7 -8 -21 -15 -31 -15 -15 0 -17 4 -9 24 7 19 5 26 -6 30 -36
14 4 26 84 26 79 -1 85 -2 68 -15z m-176 -15 c0 -5 -4 -10 -10 -10 -5 0 -10 5
-10 10 0 6 5 10 10 10 6 0 10 -4 10 -10z m-8 -299 c2 -15 -2 -33 -9 -39 -12
-12 -93 -17 -93 -6 0 15 25 51 48 71 30 26 48 17 54 -26z m-75 -143 c-2 -10
-15 -25 -28 -32 -48 -25 -56 26 -10 61 20 15 42 -2 38 -29z m-11 -64 c-9 -8
-16 -22 -16 -29 0 -8 -9 -20 -21 -29 -19 -13 -20 -14 -3 -18 15 -2 11 -7 -14
-19 -31 -15 -32 -17 -17 -33 15 -15 15 -16 -4 -16 -12 0 -21 -4 -21 -9 0 -5
-9 -7 -20 -4 -11 3 -20 9 -20 13 0 5 9 12 20 15 11 3 20 11 20 17 0 5 -6 8
-14 5 -12 -5 -13 -1 -4 25 6 17 20 33 30 36 11 3 15 8 9 11 -6 4 -8 16 -5 27
4 16 15 20 50 22 41 1 44 0 30 -14z m-90 -179 c-9 -7 -25 -12 -34 -10 -9 2
-21 4 -27 5 -17 2 29 17 54 17 23 0 23 -1 7 -12z m-6 -43 c0 -12 -58 -14 -65
-2 -4 6 8 10 29 10 20 0 36 -4 36 -8z"/>
<path d="M2878 2533 c7 -3 16 -2 19 1 4 3 -2 6 -13 5 -11 0 -14 -3 -6 -6z"/>
<path d="M2390 4370 c0 -19 24 -126 30 -130 20 -16 55 -216 43 -246 -3 -8 0
-14 6 -14 27 0 37 126 15 185 -5 13 -4 16 4 11 7 -4 21 -1 31 6 19 14 19 15 2
53 -25 54 -96 142 -116 142 -8 0 -15 -3 -15 -7z"/>
<path d="M2803 4004 c-3 -11 -11 -22 -17 -26 -18 -12 15 -57 71 -94 64 -42
160 -79 231 -89 50 -7 52 -6 52 17 0 13 5 29 11 35 19 19 5 37 -57 79 -68 44
-160 80 -233 90 -44 6 -52 4 -58 -12z"/>
<path d="M2410 3896 c0 -8 -12 -23 -26 -33 -36 -26 -27 -49 45 -115 129 -120
386 -210 524 -184 32 6 35 10 40 49 4 41 2 44 -58 102 -72 71 -186 131 -319
169 -100 29 -206 35 -206 12z m57 -12 c-3 -3 -12 -4 -19 -1 -8 3 -5 6 6 6 11
1 17 -2 13 -5z"/>
<path d="M3780 3520 c0 -15 -7 -20 -26 -20 -15 0 -40 -12 -58 -28 -44 -40 -44
-53 2 -46 20 3 48 7 62 8 41 3 62 16 50 31 -8 9 -8 15 0 20 5 3 10 18 10 33 0
21 -2 24 -10 12 -6 -10 -10 -11 -10 -2 0 6 -4 12 -10 12 -5 0 -10 -9 -10 -20z
m-15 -60 c3 -5 -1 -10 -10 -10 -9 0 -13 5 -10 10 3 6 8 10 10 10 2 0 7 -4 10
-10z"/>
<path d="M3633 3405 c-8 -9 -10 -22 -5 -35 7 -20 9 -19 37 11 24 25 26 29 8
20 -17 -9 -22 -8 -25 3 -2 12 -5 12 -15 1z"/>
<path d="M3729 3278 c-7 -13 -20 -36 -29 -53 -26 -47 -51 -115 -42 -115 5 0
16 19 27 43 10 23 28 66 41 95 23 53 25 71 3 30z"/>
<path d="M3640 3079 c-7 -11 -10 -23 -7 -25 2 -2 9 7 15 21 14 30 7 33 -8 4z"/>
<path d="M3615 3019 c-4 -6 -5 -12 -2 -15 2 -3 7 2 10 11 7 17 1 20 -8 4z"/>
<path d="M3535 2829 c-4 -6 -5 -12 -2 -15 2 -3 7 2 10 11 7 17 1 20 -8 4z"/>
<path d="M3497 2754 c-15 -24 -27 -45 -25 -47 2 -2 -3 -11 -11 -20 -11 -14
-11 -17 0 -17 9 0 10 -3 4 -8 -5 -4 -11 -14 -13 -22 -2 -10 0 -12 6 -5 11 11
74 157 70 160 -2 2 -16 -17 -31 -41z"/>
<path d="M4148 2613 c-10 -2 -18 -9 -18 -15 0 -6 -3 -8 -7 -5 -3 4 -12 -1 -19
-11 -12 -16 -13 -15 -14 6 0 12 -2 22 -4 22 -18 0 -100 -58 -118 -83 -21 -31
-20 -31 18 6 47 44 71 46 110 12 16 -14 34 -30 41 -35 9 -7 10 -18 3 -35 -7
-18 -6 -28 4 -37 7 -7 11 -23 9 -37 -4 -25 -4 -25 11 -7 8 10 13 22 11 27 -3
4 4 9 16 11 12 2 29 14 38 28 9 13 11 21 5 17 -7 -4 -18 1 -25 10 -12 15 -12
16 3 10 15 -5 16 -3 6 19 -11 23 -13 24 -19 7 -7 -16 -8 -15 -8 5 -1 12 -7 22
-15 22 -7 0 -16 9 -19 20 -3 11 -2 20 2 20 4 0 8 7 8 15 0 8 -1 14 -1 14 -1
-1 -9 -3 -18 -6z m52 -138 c19 -22 8 -25 -12 -3 -10 10 -14 18 -9 18 5 0 14
-7 21 -15z"/>
<path d="M4023 2543 c-7 -2 -13 -11 -13 -19 0 -8 -6 -17 -14 -20 -8 -3 -17
-12 -20 -19 -4 -12 0 -12 22 -3 39 17 82 48 82 59 0 9 -36 11 -57 2z m44 -9
c-3 -3 -12 -4 -19 -1 -8 3 -5 6 6 6 11 1 17 -2 13 -5z"/>
<path d="M4087 2513 c-12 -11 -8 -23 7 -23 8 0 16 7 20 15 5 15 -14 21 -27 8z"/>
<path d="M4055 2480 c-3 -5 -16 -10 -28 -11 -20 -1 -19 -2 6 -13 15 -7 25 -14
23 -17 -3 -3 11 -5 32 -6 20 0 31 2 25 4 -7 3 -13 13 -13 23 0 10 -7 21 -16
24 -21 8 -22 8 -29 -4z"/>
<path d="M3976 2401 c-9 -14 84 -45 96 -33 7 7 -1 15 -27 26 -42 18 -61 20
-69 7z"/>
<path d="M3936 2372 c-3 -6 3 -12 15 -15 12 -3 19 -1 16 6 -5 15 -24 20 -31 9z"/>
<path d="M4150 2361 c0 -18 26 -31 38 -19 17 17 15 33 -3 18 -10 -9 -15 -9
-15 -1 0 6 -4 11 -10 11 -5 0 -10 -4 -10 -9z"/>
<path d="M3913 2313 c-19 -39 -18 -40 38 -58 42 -14 53 -15 60 -4 4 8 3 19 -3
26 -8 10 -5 13 11 13 11 0 21 4 21 9 0 18 -45 41 -80 41 -28 0 -37 -5 -47 -27z"/>
<path d="M4040 2325 c12 -15 30 -12 30 6 0 5 -10 9 -21 9 -18 0 -19 -2 -9 -15z"/>
<path d="M4130 2291 c0 -5 -3 -16 -6 -25 -4 -11 0 -16 14 -16 12 0 24 4 27 10
4 6 -1 7 -11 3 -14 -5 -15 -3 -5 15 10 18 9 22 -4 22 -8 0 -15 -4 -15 -9z"/>
<path d="M3577 2236 c-23 -23 -21 -46 6 -87 26 -40 215 -140 263 -139 103 1
124 9 124 45 0 41 -54 90 -155 140 -73 37 -108 48 -158 52 -51 4 -66 2 -80
-11z m243 -66 c0 -5 -4 -10 -10 -10 -5 0 -10 5 -10 10 0 6 5 10 10 10 6 0 10
-4 10 -10z"/>
<path d="M3330 2033 c0 -11 -9 -32 -21 -47 -30 -39 -22 -59 34 -75 43 -13 48
-18 44 -38 -5 -27 10 -40 26 -24 18 18 25 13 29 -16 3 -24 12 -32 63 -52 78
-31 195 -49 227 -34 29 13 53 85 38 112 -15 29 -81 83 -141 115 -78 42 -153
65 -231 73 -64 5 -68 5 -68 -14z"/>
<path d="M4215 1908 c-24 -42 1 -36 39 9 18 21 18 22 -2 20 -11 0 -28 -14 -37
-29z"/>
<path d="M4018 1771 c-89 -90 -125 -134 -149 -184 l-33 -66 36 -35 c27 -26 42
-34 55 -28 31 12 59 36 72 60 15 28 27 22 34 -18 4 -19 13 -30 23 -30 14 0 15
7 10 43 -4 23 -11 46 -17 52 -21 21 1 102 42 154 10 13 19 33 19 45 0 12 16
40 36 61 33 36 34 40 18 52 -10 7 -20 13 -23 12 -3 0 -59 -53 -123 -118z m12
-125 c0 -19 -89 -116 -106 -116 -17 0 -17 0 2 45 25 60 104 114 104 71z"/>
<path d="M3140 1827 c0 -17 -13 -38 -35 -60 -19 -19 -35 -36 -35 -39 0 -3 22
-8 50 -12 49 -7 49 -7 44 -39 -4 -18 -15 -39 -25 -49 -39 -34 -9 -88 50 -88
51 0 132 -25 216 -67 l70 -35 15 22 c8 12 27 36 42 54 15 18 34 54 43 79 15
45 15 48 -7 77 -58 79 -235 166 -360 177 l-68 6 0 -26z"/>
<path d="M3020 1698 c-19 -11 -41 -26 -48 -33 -12 -10 -10 -12 11 -8 14 3 38
18 53 34 32 34 31 34 -16 7z"/>
<path d="M2879 1601 c-13 -11 -21 -23 -17 -26 9 -9 58 21 58 35 0 15 -15 12
-41 -9z"/>
<path d="M3007 1513 c-33 -5 -44 -26 -29 -58 13 -28 181 -114 238 -122 22 -3
48 -12 59 -19 11 -8 40 -14 65 -14 48 0 73 17 99 68 10 19 9 23 -6 29 -65 23
-171 67 -211 87 -47 24 -157 39 -215 29z"/>
<path d="M3980 1430 c0 -5 5 -10 10 -10 6 0 10 5 10 10 0 6 -4 10 -10 10 -5 0
-10 -4 -10 -10z"/>
<path d="M4026 1431 c-4 -7 -5 -15 -2 -18 9 -9 19 4 14 18 -4 11 -6 11 -12 0z"/>
<path d="M4 700 c0 -388 2 -663 3 -613 2 51 8 93 13 93 6 0 10 -7 10 -15 0 -8
6 -15 13 -15 8 0 22 -9 33 -21 10 -12 42 -36 69 -54 28 -19 60 -43 72 -54 22
-21 30 -21 600 -21 538 0 576 1 548 16 -79 43 -470 242 -850 433 -231 116
-424 214 -430 219 -5 4 -25 18 -43 31 l-33 23 3 130 3 130 75 20 c41 10 138
30 215 43 190 32 223 46 187 77 -16 14 -251 113 -414 175 -66 25 -67 26 -71
67 -2 22 -3 -276 -3 -664z"/>
<path d="M3844 1199 c-9 -12 -34 -74 -34 -85 0 -2 4 -4 8 -4 12 0 45 75 40 90
-3 9 -7 9 -14 -1z"/>
<path d="M1320 1051 c-8 -5 -37 -12 -64 -16 -31 -4 -56 -15 -69 -29 -24 -27
-47 -91 -47 -133 0 -28 4 -33 23 -33 42 0 67 -27 67 -71 0 -32 -10 -54 -46
-105 -43 -60 -45 -67 -34 -94 7 -16 20 -32 31 -35 20 -7 59 10 59 25 0 15 78
49 100 43 25 -7 25 -9 0 -40 -11 -14 -20 -32 -20 -39 0 -8 -9 -23 -20 -34 -27
-27 -25 -49 13 -120 32 -61 132 -166 193 -202 16 -10 54 -34 84 -53 30 -19 62
-35 71 -35 9 0 23 -7 30 -16 7 -9 35 -27 63 -40 l50 -24 453 0 453 0 40 40
c54 54 86 54 108 0 9 -22 22 -40 28 -40 11 0 33 41 75 138 30 70 25 106 -30
204 -27 49 -46 88 -43 89 4 0 15 2 25 4 9 2 38 -8 65 -22 99 -52 190 -76 245
-66 42 8 87 58 87 95 0 106 -367 274 -425 195 -7 -10 -17 -17 -24 -17 -6 0
-12 -4 -12 -10 -6 -44 -19 -76 -37 -87 -17 -10 -30 -3 -98 54 -96 80 -200 149
-240 159 -16 4 -85 34 -154 67 -126 60 -286 122 -350 137 -77 18 -117 34 -155
61 -33 23 -60 31 -153 44 -121 16 -317 20 -342 6z m493 -93 c18 -7 27 -18 27
-33 0 -18 -7 -24 -40 -29 -41 -6 -43 -9 -40 -64 1 -24 -6 -40 -28 -62 -43 -42
-98 -42 -147 1 -31 28 -35 37 -35 79 0 57 33 104 83 119 37 11 139 4 180 -11z
m725 -448 c6 -16 25 -42 43 -58 l33 -29 -20 -34 c-20 -35 -36 -41 -65 -28 -8
4 -35 1 -59 -7 -50 -17 -80 -13 -97 14 -17 28 25 93 90 136 29 20 55 36 59 36
3 0 11 -13 16 -30z m-25 -242 c53 -28 65 -98 23 -137 -33 -31 -74 -18 -100 31
-17 31 -18 39 -6 67 7 18 23 37 34 41 28 11 24 12 49 -2z"/>
<path d="M6248 623 c7 -3 16 -2 19 1 4 3 -2 6 -13 5 -11 0 -14 -3 -6 -6z"/>
<path d="M5983 463 c9 -2 25 -2 35 0 9 3 1 5 -18 5 -19 0 -27 -2 -17 -5z"/>
<path d="M3406 123 c-20 -60 -36 -109 -36 -115 0 -5 29 -8 65 -8 l65 0 -6 27
c-4 16 -17 42 -30 60 -13 17 -24 36 -24 42 0 18 -27 12 -34 -6z"/>
</g>
</svg>
